<?xml version="1.0" standalone="no"?>
<!DOCTYPE svg PUBLIC "-//W3C//DTD SVG 20010904//EN"
 "http://www.w3.org/TR/2001/REC-SVG-20010904/DTD/svg10.dtd">
<svg version="1.0" xmlns="http://www.w3.org/2000/svg"
 width="600.000000pt" height="600.000000pt" viewBox="0 0 600.000000 600.000000"
 preserveAspectRatio="xMidYMid meet">
<metadata>
Created by potrace 1.14, written by Peter Selinger 2001-2017
</metadata>
<g transform="translate(0.000000,600.000000) scale(0.100000,-0.100000)"
fill="#000000" stroke="none">
<path d="M4187 4418 c-9 -46 -19 -92 -22 -103 -2 -11 -29 -137 -59 -280 -30
-143 -64 -305 -76 -360 -12 -55 -24 -111 -27 -125 -2 -14 -8 -41 -14 -61 -5
-21 -22 -102 -39 -180 -16 -79 -43 -209 -60 -289 -32 -149 -37 -171 -44 -205
-2 -11 -23 -107 -46 -214 -23 -107 -44 -206 -47 -220 -2 -14 -13 -66 -25 -116
-24 -109 -26 -119 -27 -125 -1 -3 -154 -5 -340 -5 l-339 0 -13 -55 c-7 -30
-13 -59 -15 -65 -6 -32 -96 -432 -98 -440 -3 -8 390 -11 1255 -11 l1258 0 7
26 c4 14 8 30 10 35 6 26 56 232 59 245 28 123 57 245 61 251 8 14 -26 15
-348 14 -323 0 -327 0 -322 20 7 30 92 436 98 465 5 29 62 296 76 355 21 95
29 132 35 165 5 27 62 297 90 420 2 8 10 51 20 95 9 44 52 247 96 452 43 204
79 377 79 382 0 8 -179 11 -583 11 l-583 0 -17 -82z"/>
<path d="M590 4430 c-5 -3 -16 -37 -25 -75 -8 -39 -20 -88 -25 -110 -6 -22
-13 -50 -15 -62 -3 -12 -21 -86 -39 -165 -19 -78 -32 -145 -30 -148 3 -3 153
-5 332 -6 363 -2 345 -1 339 -11 -3 -5 -19 -75 -37 -158 -18 -82 -33 -154 -35
-160 -1 -5 -5 -28 -9 -50 -5 -22 -14 -65 -21 -95 -8 -30 -16 -71 -20 -90 -3
-19 -7 -39 -9 -45 -1 -5 -6 -28 -10 -50 -4 -22 -16 -78 -27 -125 -14 -65 -105
-488 -124 -580 -2 -8 -24 -114 -50 -235 -25 -121 -64 -303 -85 -405 -22 -102
-48 -224 -59 -273 l-19 -87 586 2 586 3 12 55 c29 139 96 456 119 563 13 65
27 128 29 140 3 12 16 74 30 137 14 63 27 126 30 140 2 14 16 79 30 145 32
145 65 300 70 329 2 11 10 44 16 71 6 28 14 60 16 71 3 18 37 182 49 237 2 10
6 26 9 35 3 9 7 34 11 56 3 21 7 41 9 45 2 3 7 24 10 46 4 22 9 48 12 57 3 9
6 25 8 35 29 150 41 193 50 194 6 1 158 2 338 3 180 1 329 4 332 6 4 5 112
480 122 541 l5 25 -1251 0 c-688 0 -1255 -3 -1260 -6z"/>
</g>
</svg>
